<?xml version="1.0" encoding="UTF-8" standalone="no"?>
<!-- Created with Inkscape (http://www.inkscape.org/) -->

<svg
   width="210mm"
   height="210mm"
   viewBox="0 0 210 210"
   version="1.1"
   id="svg5"
   inkscape:version="1.2.2 (732a01da63, 2022-12-09)"
   sodipodi:docname="Icon.svg"
   xmlns:inkscape="http://www.inkscape.org/namespaces/inkscape"
   xmlns:sodipodi="http://sodipodi.sourceforge.net/DTD/sodipodi-0.dtd"
   xmlns="http://www.w3.org/2000/svg"
   xmlns:svg="http://www.w3.org/2000/svg">
  <sodipodi:namedview
     id="namedview7"
     pagecolor="#ffffff"
     bordercolor="#000000"
     borderopacity="0.25"
     inkscape:showpageshadow="2"
     inkscape:pageopacity="0.0"
     inkscape:pagecheckerboard="0"
     inkscape:deskcolor="#d1d1d1"
     inkscape:document-units="mm"
     showgrid="false"
     inkscape:zoom="0.94322362"
     inkscape:cx="314.34751"
     inkscape:cy="411.88536"
     inkscape:window-width="1920"
     inkscape:window-height="1111"
     inkscape:window-x="-9"
     inkscape:window-y="-9"
     inkscape:window-maximized="1"
     inkscape:current-layer="layer1" />
  <defs
     id="defs2">
    <rect
       x="423.0174"
       y="613.85231"
       width="231.12229"
       height="108.13979"
       id="rect6411" />
  </defs>
  <g
     inkscape:label="Ebene 1"
     inkscape:groupmode="layer"
     id="layer1">
    <rect
       style="fill:#0096e6;fill-opacity:1;stroke:#0021f8;stroke-width:6.52356;stroke-linejoin:round;stroke-dasharray:none;stroke-opacity:1"
       id="rect4647"
       width="72.361496"
       height="39.541862"
       x="123.70974"
       y="-126.50487"
       transform="rotate(90)" />
    <ellipse
       style="fill:#999999;stroke-width:0.381399"
       id="path1618"
       cx="45.608765"
       cy="62.416569"
       rx="36.071434"
       ry="27.074455" />
    <ellipse
       style="fill:#999999;stroke-width:0.381399"
       id="path1620"
       cx="90.249657"
       cy="88.875687"
       rx="35.672855"
       ry="22.767155" />
    <ellipse
       style="fill:#999999;stroke-width:0.381399"
       id="path1622"
       cx="93.238991"
       cy="60.775684"
       rx="32.284931"
       ry="20.51095" />
    <ellipse
       style="fill:#999999;stroke-width:0.381399"
       id="path1624"
       cx="86.463142"
       cy="46.212914"
       rx="30.690613"
       ry="15.793431" />
    <ellipse
       style="fill:#999999;stroke-width:0.381399"
       id="path1628"
       cx="58.363312"
       cy="39.854523"
       rx="24.512632"
       ry="21.331388" />
    <path
       sodipodi:type="star"
       style="fill:#333333;fill-opacity:1;stroke:none;stroke-width:5.11101;stroke-linejoin:round;stroke-dasharray:none;stroke-opacity:1"
       id="path5503"
       inkscape:flatsided="false"
       sodipodi:sides="3"
       sodipodi:cx="153.7193"
       sodipodi:cy="83.030853"
       sodipodi:r1="11.690893"
       sodipodi:r2="5.8454466"
       sodipodi:arg1="0.52807445"
       sodipodi:arg2="1.575272"
       inkscape:rounded="0"
       inkscape:randomized="0"
       d="m 163.81765,88.921556 -10.12451,-0.04532 -10.12451,-0.04531 5.1015,-8.745425 5.10149,-8.745425 5.02301,8.790739 z"
       inkscape:transform-center-x="0.096183082"
       inkscape:transform-center-y="2.8390297"
       transform="rotate(58.800756,95.807131,60.569409)" />
    <rect
       style="fill:#333333;fill-opacity:1;stroke:none;stroke-width:6.50141;stroke-linejoin:round;stroke-dasharray:none;stroke-opacity:1"
       id="rect5609"
       width="7.5737605"
       height="90.324112"
       x="102.00993"
       y="26.648413" />
    <ellipse
       style="fill:#999999;stroke-width:0.381399"
       id="path1626"
       cx="121.33886"
       cy="47.443569"
       rx="36.868591"
       ry="30.561316" />
    <ellipse
       style="fill:#999999;stroke-width:0.381399"
       id="path1626-5"
       cx="136.3277"
       cy="72.93251"
       rx="36.868591"
       ry="30.561316" />
    <ellipse
       style="fill:#999999;stroke-width:0.381399"
       id="path1626-0"
       cx="158.48796"
       cy="40.112881"
       rx="36.868591"
       ry="30.561316" />
    <ellipse
       style="fill:#999999;stroke-width:0.381399"
       id="path1626-3"
       cx="164.65918"
       cy="68.724869"
       rx="36.868591"
       ry="30.561316" />
    <ellipse
       style="fill:#999999;stroke-width:0.381399"
       id="path1630"
       cx="79.435356"
       cy="34.991993"
       rx="30.690613"
       ry="24.613138" />
    <ellipse
       style="fill:#999999;stroke-width:0.381399"
       id="path1630-2"
       cx="89.482582"
       cy="64.51722"
       rx="30.690613"
       ry="24.613138" />
    <g
       aria-label="WebDAV"
       transform="matrix(1.2216497,0,0,1.6454103,-66.808762,13.146599)"
       id="text964"
       style="font-size:25.4px;white-space:pre;inline-size:102.647;fill:#34701a;stroke-width:5.11101;stroke-linejoin:round;fill-opacity:1">
      <path
         d="m 113.05547,18.611165 -4.826,18.1356 h -2.3114 l -3.5306,-11.8872 q -0.2286,-0.7112 -0.4318,-1.4478 -0.1778,-0.762 -0.3302,-1.3208 -0.127,-0.5842 -0.1524,-0.8128 -0.0254,0.3302 -0.2794,1.4224 -0.254,1.0668 -0.5842,2.2352 l -3.428998,11.811 h -2.3114 l -4.8006,-18.1356 h 2.3876 l 2.8194,11.0744 q 0.3048,1.1684 0.508,2.2606 0.2286,1.0922 0.3556,2.0574 0.127,-0.9906 0.381,-2.159 0.254,-1.1684 0.5842,-2.286 l 3.200398,-10.9474 h 2.3622 l 3.3274,11.0236 q 0.3556,1.1684 0.6096,2.3368 0.254,1.1684 0.381,2.032 0.1016,-0.9398 0.3302,-2.032 0.254,-1.1176 0.5588,-2.3114 l 2.794,-11.049 z"
         style="stroke-width:5.111;fill:#34701a;fill-opacity:1"
         id="path1020" />
      <path
         d="m 120.29447,22.878365 q 1.7272,0 2.9972,0.762 1.27,0.762 1.9304,2.159 0.6858,1.3716 0.6858,3.2258 v 1.3462 h -9.3218 q 0.0508,2.3114 1.1684,3.5306 1.143,1.1938 3.175,1.1938 1.2954,0 2.286,-0.2286 1.016,-0.254 2.0828,-0.7112 v 1.9558 q -1.0414,0.4572 -2.0574,0.6604 -1.016,0.2286 -2.413,0.2286 -1.9558,0 -3.429,-0.7874 -1.4732,-0.7874 -2.3114,-2.3368 -0.8128,-1.5494 -0.8128,-3.8354 0,-2.2352 0.7366,-3.8354 0.762,-1.6002 2.1082,-2.4638 1.3716,-0.8636 3.175,-0.8636 z m -0.0254,1.8288 q -1.6002,0 -2.54,1.0414 -0.9144,1.016 -1.0922,2.8448 h 6.9342 q -0.0254,-1.7272 -0.8128,-2.794 -0.7874,-1.0922 -2.4892,-1.0922 z"
         style="stroke-width:5.111;fill:#34701a;fill-opacity:1"
         id="path1022" />
      <path
         d="m 131.59745,17.442765 v 4.699 q 0,0.8636 -0.0508,1.6256 -0.0254,0.7366 -0.0762,1.1684 h 0.127 q 0.5842,-0.8636 1.6002,-1.4478 1.016,-0.5842 2.6162,-0.5842 2.54,0 4.064,1.778 1.5494,1.7526 1.5494,5.2578 0,3.5052 -1.5494,5.2832 -1.5494,1.778 -4.064,1.778 -1.6002,0 -2.6162,-0.5842 -1.016,-0.5842 -1.6002,-1.397 h -0.1778 l -0.4572,1.7272 h -1.6002 v -19.304 z m 3.8354,7.3152 q -2.1844,0 -3.0226,1.2446 -0.8128,1.2446 -0.8128,3.8608 v 0.1016 q 0,2.5146 0.8128,3.8608 0.8382,1.3208 3.0734,1.3208 1.8288,0 2.7178,-1.3462 0.9144,-1.3462 0.9144,-3.8862 0,-5.1562 -3.683,-5.1562 z"
         style="stroke-width:5.111;fill:#34701a;fill-opacity:1"
         id="path1024" />
      <path
         d="m 159.81684,27.501165 q 0,4.5974 -2.5146,6.9342 -2.4892,2.3114 -6.9596,2.3114 h -5.0546 v -18.1356 h 5.588 q 2.7178,0 4.7244,1.016 2.032,1.016 3.1242,2.9972 1.0922,1.9812 1.0922,4.8768 z m -2.413,0.0762 q 0,-3.6322 -1.8034,-5.3086 -1.778,-1.7018 -5.0546,-1.7018 h -2.9718 v 14.224 h 2.4638 q 7.366,0 7.366,-7.2136 z"
         style="stroke-width:5.111;fill:#34701a;fill-opacity:1"
         id="path1026" />
      <path
         d="m 174.70122,36.746765 -2.1844,-5.6134 h -7.1882 l -2.159,5.6134 h -2.3114 l 7.0866,-18.2118 h 2.0574 l 7.0612,18.2118 z m -2.8702,-7.6454 -2.032,-5.4864 q -0.0762,-0.2032 -0.254,-0.7366 -0.1778,-0.5334 -0.3556,-1.0922 -0.1524,-0.5842 -0.254,-0.889 -0.2032,0.7874 -0.4318,1.5494 -0.2032,0.7366 -0.3556,1.1684 l -2.0574,5.4864 z"
         style="stroke-width:5.111;fill:#34701a;fill-opacity:1"
         id="path1028" />
      <path
         d="m 191.31279,18.611165 -6.477,18.1356 h -2.286 l -6.477,-18.1356 h 2.3876 l 4.0894,11.6332 q 0.4064,1.1176 0.6604,2.1082 0.2794,0.9652 0.4826,1.8542 0.1778,-0.889 0.4572,-1.8796 0.2794,-0.9906 0.6858,-2.1336 l 4.064,-11.5824 z"
         style="stroke-width:5.111;fill:#34701a;fill-opacity:1"
         id="path1030" />
    </g>
  </g>
</svg>
